<?xml version="1.0" encoding="UTF-8" standalone="no"?>
<!-- Created with Inkscape (http://www.inkscape.org/) -->

<svg
   width="1280"
   height="640"
   viewBox="0 0 338.66663 169.33331"
   version="1.1"
   id="svg1"
   xml:space="preserve"
   inkscape:version="1.4 (e7c3feb1, 2024-10-09)"
   sodipodi:docname="Banner.svg"
   xmlns:inkscape="http://www.inkscape.org/namespaces/inkscape"
   xmlns:sodipodi="http://sodipodi.sourceforge.net/DTD/sodipodi-0.dtd"
   xmlns="http://www.w3.org/2000/svg"
   xmlns:svg="http://www.w3.org/2000/svg"><sodipodi:namedview
     id="namedview1"
     pagecolor="#505050"
     bordercolor="#eeeeee"
     borderopacity="1"
     inkscape:showpageshadow="0"
     inkscape:pageopacity="0"
     inkscape:pagecheckerboard="0"
     inkscape:deskcolor="#505050"
     inkscape:document-units="mm"
     inkscape:zoom="0.44795064"
     inkscape:cx="563.67818"
     inkscape:cy="327.04496"
     inkscape:window-width="1512"
     inkscape:window-height="916"
     inkscape:window-x="0"
     inkscape:window-y="38"
     inkscape:window-maximized="0"
     inkscape:current-layer="layer3" /><defs
     id="defs1"><rect
       x="691.68036"
       y="222.9383"
       width="707.07341"
       height="561.55587"
       id="rect11" /><rect
       x="804.02941"
       y="291.42252"
       width="296.02033"
       height="215.75835"
       id="rect10" /><rect
       x="662.70358"
       y="82.121769"
       width="429.70693"
       height="199.76513"
       id="rect2" /><style
       id="style1">
      .cls-1 {
        fill: #6e738d;
      }

      .cls-1, .cls-2, .cls-3, .cls-4, .cls-5, .cls-6 {
        stroke-width: 0px;
      }

      .cls-2, .cls-5 {
        fill: #eed4a0;
      }

      .cls-7 {
        fill: #f4a97f;
      }

      .cls-7, .cls-8, .cls-9, .cls-10, .cls-11 {
        stroke: #363a4f;
        stroke-width: 15px;
      }

      .cls-7, .cls-8, .cls-10 {
        stroke-linejoin: round;
      }

      .cls-7, .cls-8, .cls-10, .cls-11 {
        stroke-linecap: round;
      }

      .cls-3 {
        fill: #363a4f;
      }

      .cls-8, .cls-9, .cls-11 {
        fill: none;
      }

      .cls-4 {
        fill: #939ab7;
      }

      .cls-9, .cls-11 {
        stroke-miterlimit: 10;
      }

      .cls-10 {
        fill: #efd4a0;
      }

      .cls-5 {
        opacity: .25;
      }

      .cls-6 {
        fill: #5d6078;
      }
    </style></defs><rect
     style="fill:#24273a;fill-opacity:1;stroke-width:0.264583"
     id="rect1"
     width="338.66666"
     height="169.33333"
     x="0"
     y="0"
     inkscape:label="Background"
     sodipodi:insensitive="true" /><g
     inkscape:groupmode="layer"
     id="layer3"
     inkscape:label="Layer 3"><path
       class="cls-2"
       d="m 195.27408,157.56214 v 0 c -0.30278,0 -0.5598,-0.23061 -0.58444,-0.53164 -0.24821,-3.18629 -2.63354,-7.42881 -5.62268,-7.86363 -0.28693,-0.0423 -0.49818,-0.2887 -0.49818,-0.57916 v -0.19365 c 0,-0.29046 0.21125,-0.53691 0.49818,-0.57916 2.98914,-0.43306 5.37447,-4.67559 5.62268,-7.86364 0.0229,-0.30103 0.28166,-0.53164 0.58444,-0.53164 v 0 c 0.30279,0 0.5598,0.23061 0.58446,0.53164 0.24821,3.18629 2.63353,7.42882 5.62266,7.86364 0.28695,0.0422 0.49819,0.2887 0.49819,0.57916 v 0.19365 c 0,0.29046 -0.21124,0.53691 -0.49819,0.57916 -2.98913,0.43306 -5.37445,4.67558 -5.62266,7.86363 -0.0229,0.30103 -0.28167,0.53164 -0.58446,0.53164 z"
       id="path12-4-5"
       style="fill:#eed4a0;stroke-width:0px" /><path
       class="cls-2"
       d="m 316.56808,101.94195 v 0 c -0.30278,0 -0.5598,-0.23061 -0.58444,-0.53164 -0.24821,-3.186294 -2.63354,-7.428844 -5.62268,-7.863664 -0.28693,-0.0423 -0.49818,-0.288696 -0.49818,-0.579156 v -0.19365 c 0,-0.29046 0.21125,-0.53691 0.49818,-0.57916 2.98914,-0.43307 5.37447,-4.67562 5.62268,-7.863677 0.0229,-0.30103 0.28166,-0.53164 0.58444,-0.53164 v 0 c 0.30279,0 0.5598,0.23061 0.58446,0.53164 0.24821,3.186297 2.63353,7.428847 5.62266,7.863677 0.28695,0.0422 0.49819,0.2887 0.49819,0.57916 v 0.19365 c 0,0.29046 -0.21124,0.536906 -0.49819,0.579156 -2.98913,0.43306 -5.37445,4.67561 -5.62266,7.863664 -0.0229,0.30103 -0.28167,0.53164 -0.58446,0.53164 z"
       id="path14"
       style="opacity:1;mix-blend-mode:normal;fill:#eed4a0;fill-opacity:1;stroke-width:0px" /></g><g
     inkscape:label="Layer 1"
     inkscape:groupmode="layer"
     id="layer1"><g
       id="Layer_1-2"
       data-name="Layer 1"
       transform="matrix(0.1946735,0,0,0.1946735,21.355139,32.225514)"><path
         class="cls-7"
         d="m 251.68,277.71 h 222.73 v -56.09 c 0,-11.6 -9.4,-21 -21,-21 H 282.63 l 0.02,-12.29 c 0.02,-11.99 -9.7,-21.71 -21.68,-21.71 H 131.42 c -14.14,0 -25.61,11.47 -25.61,25.61 v 299.72 c 0,21.72 17.61,39.33 39.33,39.33 v 0 c 11.97,0 22.4,-8.15 25.28,-19.77 l 52.5,-211.29 c 3.28,-13.22 15.16,-22.5 28.78,-22.5 z"
         id="path1"
         style="display:inline" /><g
         id="g4"
         style="display:inline"
         inkscape:label="g4"
         transform="translate(-11.607586,20.399361)"><g
           id="g3"><path
             class="cls-1"
             d="m 75.06,419.76 h -0.35 c -6.94,-0.28 -9.1,-4.49 -9.76,-6.97 -0.9,-3.35 0.38,-6.88 3.61,-9.93 4.61,-4.35 9.24,-8.68 13.88,-13 2.59,-2.41 5.17,-4.83 7.75,-7.25 11.33,-10.61 12.2,-26.74 2.19,-40.13 -5,-6.69 -9.65,-10.61 -15.06,-12.71 -3.29,-1.28 -6.5,-1.93 -9.53,-1.93 -6.42,0 -12.67,2.88 -19.09,8.81 -6.22,5.74 -12.66,11.38 -18.89,16.84 -2.38,2.09 -4.77,4.18 -7.15,6.28 l -0.09,0.08 c -1.07,0.95 -3.31,2.93 -6.63,2.93 -0.6,0 -1.2,-0.07 -1.79,-0.2 -3.46,-0.79 -7.25,-3.9 -6.57,-10.05 v -0.13 c 1.77,-27.95 12.6,-48.22 33.12,-61.87 11,-7.32 22.75,-11.03 34.92,-11.03 0.4,0 0.81,0 1.21,0.01 0.27,0 0.82,0 0.82,0 9.75,0 18.12,-3.57 25.59,-10.9 12.39,-12.16 24.89,-24.67 36.97,-36.77 l 3.02,-3.02 c 4.37,-4.37 8.74,-8.73 13.12,-13.09 12.5,-12.45 25.42,-25.32 37.84,-38.21 l 0.07,-0.07 c 13.8,-13.95 27.61,-28.02 39.3,-39.95 2.56,-2.62 5.16,-5.2 7.75,-7.79 6.05,-6.03 12.3,-12.27 17.95,-18.71 7.31,-8.32 10.66,-17.67 9.94,-27.78 -1.3,-18.41 2.79,-33.89 12.5,-47.3 12.9,-17.83 29.78,-27.21 50.15,-27.88 l 0.87,-0.07 c 4.21,-0.34 5.95,-0.48 11.77,-0.48 h 0.52 c 6.94,0.28 9.09,4.49 9.76,6.97 0.9,3.35 -0.38,6.88 -3.61,9.93 -4.61,4.36 -9.25,8.69 -13.89,13.02 -2.58,2.41 -5.16,4.82 -7.74,7.23 -11.33,10.61 -12.2,26.74 -2.19,40.14 5,6.69 9.65,10.61 15.06,12.71 3.29,1.28 6.5,1.93 9.53,1.93 6.43,0 12.67,-2.88 19.09,-8.81 6.23,-5.75 12.67,-11.39 18.9,-16.85 2.38,-2.09 4.76,-4.17 7.14,-6.27 l 0.08,-0.07 c 1.07,-0.95 3.31,-2.94 6.64,-2.94 0.6,0 1.2,0.07 1.79,0.2 3.46,0.79 7.25,3.9 6.57,10.05 v 0.13 c -1.77,27.95 -12.6,48.22 -33.12,61.87 -11,7.32 -22.75,11.03 -34.92,11.03 v 0 c -0.4,0 -0.81,0 -1.21,-0.01 -0.28,0 -0.55,0 -0.82,0 -9.75,0 -18.12,3.56 -25.59,10.9 -12.35,12.13 -24.81,24.59 -36.85,36.65 l -3.13,3.14 c -4.36,4.37 -8.74,8.73 -13.11,13.08 -12.5,12.45 -25.42,25.32 -37.84,38.21 l -0.07,0.07 c -13.85,13.99 -27.64,28.05 -39.3,39.95 -2.56,2.61 -5.15,5.2 -7.74,7.79 -6.05,6.04 -12.3,12.27 -17.96,18.71 -7.31,8.32 -10.66,17.67 -9.94,27.78 1.3,18.41 -2.79,33.89 -12.5,47.3 -12.9,17.83 -29.78,27.21 -50.15,27.88 l -0.87,0.07 c -4.21,0.34 -5.95,0.48 -11.77,0.48 h -0.17 z"
             id="path2" /><path
             class="cls-3"
             d="m 344.48,15 c 1.11,0.05 2.66,0 3.03,1.41 0.18,0.67 -0.8,1.86 -1.52,2.53 -7.17,6.77 -14.41,13.48 -21.6,20.23 -14.72,13.79 -14.94,34.23 -3.06,50.1 4.9,6.55 10.61,12.21 18.35,15.21 4.27,1.66 8.34,2.43 12.24,2.43 8.84,0 16.81,-4 24.18,-10.79 8.49,-7.83 17.25,-15.36 25.91,-23.01 0.52,-0.45 1.24,-1.13 1.76,-1.13 0.04,0 0.08,0 0.12,0.01 1.15,0.26 0.8,1.49 0.74,2.32 -1.46,23.22 -9.65,42.79 -29.78,56.18 -9.42,6.27 -19.64,9.77 -30.76,9.77 -0.35,0 -0.71,0 -1.06,-0.01 -0.33,0 -0.65,0 -0.97,0 -12.21,0 -22.29,4.64 -30.85,13.05 -13.44,13.19 -26.73,26.52 -40.03,39.84 -17.06,17.08 -34.3,34.01 -51.05,51.39 -13.15,13.28 -26.24,26.62 -39.32,39.97 -8.71,8.89 -17.76,17.44 -25.98,26.8 -8.34,9.49 -12.68,20.64 -11.79,33.26 1.09,15.5 -1.94,29.74 -11.09,42.38 -10.95,15.13 -25.39,24.21 -44.49,24.79 -4.91,0.39 -6.26,0.54 -12.22,0.54 -1.11,-0.05 -2.66,0 -3.03,-1.41 -0.18,-0.67 0.8,-1.86 1.52,-2.53 7.17,-6.77 14.41,-13.48 21.6,-20.23 14.72,-13.79 14.94,-34.23 3.06,-50.1 -4.9,-6.55 -10.61,-12.21 -18.35,-15.21 -4.27,-1.66 -8.34,-2.43 -12.24,-2.43 -8.84,0 -16.81,4 -24.18,10.79 -8.49,7.83 -17.25,15.36 -25.91,23.01 -0.52,0.45 -1.24,1.13 -1.76,1.13 -0.04,0 -0.08,0 -0.12,-0.01 -1.15,-0.26 -0.8,-1.49 -0.74,-2.32 1.46,-23.22 9.65,-42.79 29.78,-56.18 9.42,-6.27 19.64,-9.77 30.76,-9.77 0.35,0 0.71,0 1.06,0.01 0.33,0 0.65,0 0.97,0 12.21,0 22.29,-4.64 30.85,-13.05 13.44,-13.19 26.73,-26.52 40.03,-39.84 17.06,-17.08 34.3,-34.01 51.05,-51.39 13.15,-13.28 26.24,-26.62 39.32,-39.97 8.71,-8.89 17.76,-17.44 25.98,-26.8 8.34,-9.49 12.68,-20.64 11.79,-33.26 -1.09,-15.5 1.94,-29.74 11.09,-42.38 10.95,-15.13 25.39,-24.21 44.49,-24.79 4.91,-0.39 6.26,-0.54 12.22,-0.54 m 0.34,-15 h -0.34 c -6.11,0 -8.07,0.16 -12.35,0.5 l -0.71,0.06 c -22.74,0.8 -41.51,11.22 -55.8,30.98 -10.63,14.69 -15.31,32.26 -13.9,52.22 0.58,8.15 -2.07,15.45 -8.1,22.3 -5.49,6.25 -11.38,12.13 -17.62,18.35 -2.56,2.55 -5.2,5.19 -7.8,7.85 -11.74,11.98 -25.59,26.1 -39.27,39.92 l -0.07,0.07 -0.07,0.07 c -12.35,12.82 -25.24,25.66 -37.7,38.07 -4.39,4.37 -8.78,8.75 -13.16,13.13 l -3.17,3.17 C 122.74,238.72 110.31,251.17 98,263.25 91.92,269.22 85.45,272 77.66,272 c -0.22,0 -0.45,0 -0.67,0 -0.46,0 -0.91,-0.01 -1.36,-0.01 -13.67,0 -26.82,4.13 -39.07,12.29 -11.82,7.86 -20.9,18.01 -26.99,30.17 -5.43,10.82 -8.51,23.03 -9.44,37.32 -1.11,10.25 5.62,16.58 12.35,18.12 1.14,0.26 2.3,0.39 3.46,0.39 6.18,0 10.13,-3.5 11.61,-4.82 l 0.07,-0.07 c 2.37,-2.09 4.74,-4.17 7.12,-6.25 6.27,-5.49 12.74,-11.17 19.04,-16.98 4.97,-4.59 9.55,-6.82 14.01,-6.82 2.13,0 4.36,0.46 6.82,1.42 4.03,1.56 7.65,4.71 11.77,10.21 5.87,7.85 9.05,20.46 -1.31,30.17 -2.56,2.4 -5.13,4.8 -7.7,7.19 -4.58,4.27 -9.31,8.69 -13.95,13.08 -5.25,4.96 -7.33,11.27 -5.71,17.32 0.75,2.81 4.19,12.03 16.72,12.51 h 0.13 c 0,0 0.33,0.02 0.33,0.02 h 0.33 c 6.11,0 8.07,-0.16 12.36,-0.5 l 0.71,-0.06 c 22.73,-0.8 41.51,-11.22 55.8,-30.98 10.63,-14.69 15.31,-32.26 13.9,-52.22 -0.58,-8.15 2.07,-15.45 8.1,-22.3 5.49,-6.25 11.38,-12.13 17.62,-18.35 2.56,-2.55 5.2,-5.19 7.8,-7.85 12.34,-12.59 25.63,-26.14 39.27,-39.92 l 0.07,-0.07 0.07,-0.07 c 12.35,-12.82 25.24,-25.65 37.69,-38.07 4.39,-4.37 8.78,-8.75 13.16,-13.14 l 3.19,-3.19 c 12.01,-12.03 24.43,-24.46 36.74,-36.54 6.08,-5.97 12.55,-8.75 20.34,-8.75 0.22,0 0.45,0 0.67,0 0.46,0 0.91,0.01 1.36,0.01 13.67,0 26.82,-4.13 39.07,-12.29 11.82,-7.86 20.9,-18.01 26.99,-30.17 5.43,-10.82 8.51,-23.03 9.44,-37.33 1.1,-10.25 -5.62,-16.58 -12.35,-18.12 -1.14,-0.26 -2.3,-0.39 -3.46,-0.39 -6.18,0 -10.12,3.5 -11.61,4.82 l -0.07,0.07 c -2.37,2.09 -4.75,4.17 -7.12,6.26 -6.27,5.49 -12.74,11.16 -19.04,16.97 -4.97,4.59 -9.55,6.82 -14.01,6.82 -2.13,0 -4.36,-0.46 -6.82,-1.42 -4.03,-1.56 -7.65,-4.71 -11.77,-10.21 -5.87,-7.85 -9.05,-20.46 1.31,-30.17 2.56,-2.4 5.13,-4.8 7.7,-7.2 4.58,-4.27 9.31,-8.69 13.95,-13.07 5.25,-4.96 7.33,-11.27 5.71,-17.32 C 361.24,9.7 357.8,0.48 345.27,0 h -0.13 c 0,0 -0.34,-0.02 -0.34,-0.02 v 0 z"
             id="path3" /></g><rect
           class="cls-6"
           x="190.61"
           y="125.12"
           width="26.290001"
           height="191.2"
           rx="13.15"
           ry="13.15"
           transform="rotate(45,203.75549,220.71829)"
           id="rect3" /></g><rect
         class="cls-6"
         x="331.88"
         y="184.97"
         width="185.48"
         height="124.43"
         rx="16.040001"
         ry="16.040001"
         id="rect4" /><rect
         class="cls-1"
         x="338.47"
         y="192.71001"
         width="26.48"
         height="24.870001"
         rx="4.8299999"
         ry="4.8299999"
         id="rect5" /><rect
         class="cls-1"
         x="338.42999"
         y="230.53999"
         width="26.48"
         height="24.870001"
         rx="4.8299999"
         ry="4.8299999"
         id="rect6" /><rect
         class="cls-1"
         x="483.34"
         y="230.53999"
         width="26.48"
         height="24.870001"
         rx="4.8299999"
         ry="4.8299999"
         id="rect7" /><rect
         class="cls-1"
         x="483.34"
         y="192.71001"
         width="26.48"
         height="24.870001"
         rx="4.8299999"
         ry="4.8299999"
         id="rect8" /><rect
         class="cls-9"
         x="331.88"
         y="184.97"
         width="185.48"
         height="124.43"
         rx="16.040001"
         ry="16.040001"
         id="rect9" /><path
         class="cls-4"
         d="m 453.86,243.89 -43.04,24.85 c -3.62,2.09 -8.14,-0.52 -8.14,-4.7 v -49.7 c 0,-4.18 4.52,-6.79 8.14,-4.7 l 43.04,24.85 c 3.62,2.09 3.62,7.31 0,9.4 z"
         id="path9" /><path
         class="cls-10"
         d="M 498.89,531.28 H 165.49 L 222.9,300.22 c 3.28,-13.22 15.16,-22.5 28.78,-22.5 h 295.47 c 12.92,0 22.7,11.67 20.45,24.39 l -35.77,201.57 c -2.83,15.97 -16.72,27.6 -32.93,27.6 z"
         id="path10" /><ellipse
         class="cls-3"
         cx="312.35999"
         cy="401.92999"
         rx="15.65"
         ry="20.35"
         id="ellipse10" /><ellipse
         class="cls-3"
         cx="438.75"
         cy="401.92999"
         rx="15.65"
         ry="20.35"
         id="ellipse11" /><path
         class="cls-11"
         d="m 351.88,426.8 c 0.58,0.93 9.06,13.88 25.04,14.09 16.48,0.21 25.35,-13.32 25.83,-14.09"
         id="path11" /><path
         class="cls-2"
         d="m 534.67,151.84 v 0 c -1.72,0 -3.18,-1.31 -3.32,-3.02 -1.41,-18.1 -14.96,-42.2 -31.94,-44.67 -1.63,-0.24 -2.83,-1.64 -2.83,-3.29 v -1.1 c 0,-1.65 1.2,-3.05 2.83,-3.29 16.98,-2.46 30.53,-26.56 31.94,-44.67 0.13,-1.71 1.6,-3.02 3.32,-3.02 v 0 c 1.72,0 3.18,1.31 3.32,3.02 1.41,18.1 14.96,42.2 31.94,44.67 1.63,0.24 2.83,1.64 2.83,3.29 v 1.1 c 0,1.65 -1.2,3.05 -2.83,3.29 -16.98,2.46 -30.53,26.56 -31.94,44.67 -0.13,1.71 -1.6,3.02 -3.32,3.02 z"
         id="path12" /><line
         class="cls-8"
         x1="145.12"
         y1="531.28003"
         x2="165.49001"
         y2="531.28003"
         id="line12"
         inkscape:label="line12" /></g></g><g
     inkscape:groupmode="layer"
     id="layer2"
     inkscape:label="Layer 2"><text
       xml:space="preserve"
       style="font-style:normal;font-variant:normal;font-weight:normal;font-stretch:normal;font-size:45.8611px;font-family:Rubik;-inkscape-font-specification:'Rubik, @wght=400';font-variant-ligatures:normal;font-variant-caps:normal;font-variant-numeric:normal;font-variant-east-asian:normal;font-variation-settings:'wght' 400;text-align:start;writing-mode:lr-tb;direction:ltr;text-anchor:start;fill:#cad3f5;stroke-width:0.264583"
       x="142.12068"
       y="76.406609"
       id="text11"
       sodipodi:insensitive="true"><tspan
         sodipodi:role="line"
         id="tspan11"
         style="font-style:normal;font-variant:normal;font-weight:normal;font-stretch:normal;font-size:45.8611px;font-family:Rubik;-inkscape-font-specification:'Rubik, @wght=400';font-variant-ligatures:normal;font-variant-caps:normal;font-variant-numeric:normal;font-variant-east-asian:normal;font-variation-settings:'wght' 400;stroke-width:0.264583"
         x="142.12068"
         y="76.406609">Nano</tspan><tspan
         sodipodi:role="line"
         style="font-style:normal;font-variant:normal;font-weight:normal;font-stretch:normal;font-size:45.8611px;font-family:Rubik;-inkscape-font-specification:'Rubik, @wght=400';font-variant-ligatures:normal;font-variant-caps:normal;font-variant-numeric:normal;font-variant-east-asian:normal;font-variation-settings:'wght' 400;stroke-width:0.264583"
         x="142.12068"
         y="133.73299"
         id="tspan12">Encoder</tspan></text><path
       class="cls-2"
       d="m 276.26883,44.303839 v 0 c -0.30278,0 -0.5598,-0.23061 -0.58444,-0.531636 -0.24821,-3.186297 -2.63354,-7.428825 -5.62268,-7.86364 -0.28693,-0.04225 -0.49818,-0.288704 -0.49818,-0.579167 v -0.193643 c 0,-0.290463 0.21125,-0.536917 0.49818,-0.579166 2.98914,-0.433055 5.37447,-4.675583 5.62268,-7.863641 0.0229,-0.301025 0.28166,-0.531636 0.58444,-0.531636 v 0 c 0.30279,0 0.5598,0.230611 0.58446,0.531636 0.24821,3.186298 2.63353,7.428826 5.62266,7.863641 0.28695,0.04225 0.49819,0.288703 0.49819,0.579166 v 0.193643 c 0,0.290463 -0.21124,0.536917 -0.49819,0.579167 -2.98913,0.433055 -5.37445,4.675582 -5.62266,7.86364 -0.0229,0.301026 -0.28167,0.531636 -0.58446,0.531636 z"
       id="path12-4"
       style="fill:#eed4a0;stroke-width:0px" /><path
       class="cls-2"
       d="m 169.33333,26.16131 v 0 c -0.12574,0 -0.23248,-0.09577 -0.24271,-0.220779 -0.10308,-1.323197 -1.09365,-3.085028 -2.33498,-3.265599 -0.11915,-0.01757 -0.20688,-0.119891 -0.20688,-0.240513 V 22.354 c 0,-0.120621 0.0877,-0.222967 0.20688,-0.240512 1.24133,-0.179841 2.2319,-1.941672 2.33498,-3.2656 0.01,-0.125011 0.11697,-0.220779 0.24271,-0.220779 v 0 c 0.12574,0 0.23247,0.09577 0.24271,0.220779 0.10308,1.323197 1.09365,3.085028 2.33497,3.2656 0.11916,0.01752 0.20689,0.119891 0.20689,0.240512 v 0.08042 c 0,0.120622 -0.0877,0.222967 -0.20689,0.240513 -1.24132,0.17984 -2.23189,1.941671 -2.33497,3.265599 -0.01,0.125012 -0.11697,0.220779 -0.24271,0.220778 z"
       id="path13"
       style="fill:#eed4a0;stroke-width:0px" /></g></svg>
